<svg id="Capa_1" data-name="Capa 1" xmlns="http://www.w3.org/2000/svg" viewBox="0 0 260 130"><defs><style>.cls-1{fill:#bd670e;}.cls-2{fill:#6e1713;}.cls-3{fill:#0e1e14;}</style></defs><path class="cls-1" d="M203.79,98.23c1.93-3.83,4-6.62,2.15-11.22-3-7.47,2-15,10-16.42,2.07-.37,2-.92,1.24-2.63-3.18-7.41-.44-16.21,6.49-17.76,5.21-1.16,7-4.39,9.09-8.18,1.4-2.58,2.79-5.18,4.34-7.68,1.08-1.74,1-2.65-1.13-3.39a75.31,75.31,0,0,0-21.65-3.81A144.67,144.67,0,0,0,183,29.83c-8.85,1.61-15.56-4.32-14.73-12.85.47-4.78,3.94-8.8,9.54-10,20-4.47,40.13-5.85,60.24-.4a62.15,62.15,0,0,1,17.77,8c1.79,1.17,3,2.77,1.55,5s-3.41,2.31-5.46,1C239.42,12.32,225.44,10,210.94,10a127.55,127.55,0,0,0-30.63,3.53c-3.56.85-5.47,3.07-4.91,5.71.65,3.06,3,4.39,6.91,3.72,10.07-1.72,20.18-3.05,30.42-2.79,10.45.27,20.73,1.61,30.32,6.18,4.38,2.08,4.75,3.34,2.41,7.53-3.64,6.51-7.31,13-10.9,19.54-1.3,2.37-2.78,3.64-5.8,2.88-3.57-.91-6.38,2.85-5.5,7a3.87,3.87,0,0,0,.64,1.77c3.82,4.16.64,7.53-1.2,11-.84,1.59-2.32,1.71-3.83,1.51-2.23-.3-4.18-.11-5.43,2.13s-1.58,4.83,0,6.82c2.25,2.81,1.8,5.2.24,8.06-2.41,4.43-4.52,9-6.71,13.57-.88,1.84-2,3.24-4.27,3.07s-2.92-1.75-3.55-3.52c-7.12-19.88-13.18-40.12-19.71-60.2-.79-2.43-1-4.7,2-5.64,2.41-.75,3.93.27,4.72,2.77,3.23,10.2,6.56,20.37,9.88,30.55C198.5,82.76,200.66,90.41,203.79,98.23Z"/><path d="M50.28,97.23c0-6-.06-12,0-18,.07-5.34,1.92-7.6,7.15-8.12C66,70.26,74.63,69.7,83.23,69c.72-.06,1.56-.23,2,.56a8.83,8.83,0,0,1,.47,7c-.58,1.89-2.17,2.7-4.13,2.84-5.56.4-11.11.9-16.67,1.21-1.58.08-2.25.42-2.14,2.12.16,2.52-.84,5.77.39,7.37s4.6-.09,7-.08a92.62,92.62,0,0,0,10.39-.68c1.93-.21,2.66.66,3,2.32,1,5.16-.93,8.35-6,8.25-4.29-.08-8.59.71-12.89.91-1.56.08-2,.56-1.88,2,.11,2.31.12,4.64,0,6.94-.09,1.74.54,2.1,2.18,1.94,5.55-.52,11.11-.92,16.67-1.3,4.34-.29,4.65,0,5,4.21.31,3.42-1.27,5.82-4.42,6.1-7,.65-14,1.21-21.07,1.61-10.08.56-10.78-.18-10.8-10.33,0-2.52-.05-5-.06-7.58S50.28,99.65,50.28,97.23Z"/><path d="M68.8,46.37c5.36-.4,10.14-.67,14.91-1.15C86,45,87.57,45.1,87.79,48c.23,3.1-.74,5.33-3.27,5.55-8.28.73-16.58,1.22-24.86,1.88-1.36.11-1.91-.67-2.41-1.6-1.72-3.22-.77-6.14,1.21-8.82,4.76-6.41,9.62-12.75,14.39-19.16.66-.89,1.6-1.67,1.77-3.21-4.57.39-9,.73-13.49,1.17-2,.2-3.77.37-4.11-2.41-.41-3.35.53-5.55,3.22-5.8,7.86-.73,15.73-1.28,23.6-1.82,2.35-.17,3,1.74,3.4,3.47.77,2.94-.64,5.35-2.29,7.58-4.82,6.5-9.7,13-14.56,19.43C70,44.77,69.56,45.34,68.8,46.37Z"/><path d="M105.16,43.67c5.38-.42,10-.67,14.58-1.18,2.18-.24,4-.41,4.36,2.43.45,3.15-.64,5.45-3.29,5.8-3.33.45-6.7.56-10.06.8-4.51.32-9,.48-13.52,1-3,.34-4-1.15-4.37-3.62-.49-3,.83-5.31,2.51-7.54,5.22-7,10.46-13.9,15.95-21.19-5-.45-9.5.75-14,.78-1.66,0-3.52.79-3.84-1.83-.29-2.44-.72-5,2.29-6.14a7.39,7.39,0,0,1,2.15-.42c7-.52,14.06-.86,21.07-1.58,3-.31,4,1.11,4.49,3.53a8.71,8.71,0,0,1-1.88,7.08c-5.07,6.7-10.07,13.46-15.09,20.2C106.17,42.18,105.9,42.59,105.16,43.67Z"/><path d="M49.45,37.33c0,5.46-.09,10.93,0,16.39,0,2-.54,3-2.55,3-1.15,0-2.3.18-3.46.2-2.6.06-3.9-1.3-3.9-3.84,0-11.46,0-22.91,0-34.36,0-1.31.5-1.94,1.78-2.06.94-.08,1.87-.31,2.81-.35,4.28-.21,5.28.7,5.3,4.94C49.48,26.61,49.45,32,49.45,37.33Z"/><path class="cls-2" d="M198.9,31.8a8.93,8.93,0,1,1-9,8.88A8.8,8.8,0,0,1,198.9,31.8Z"/><path class="cls-3" d="M219.72,42.77a10.21,10.21,0,0,1-1.16,5.39c-1.23,2.12-3.27,2.27-4.29.11a13.14,13.14,0,0,1,0-11.83c1.18-2.41,3.05-2.27,4.39.13C219.45,38,219.74,39.6,219.72,42.77Z"/><path class="cls-2" d="M210.48,61.22A5.09,5.09,0,0,1,205.26,66a4.86,4.86,0,0,1-4.7-5.2,5,5,0,0,1,5-4.63A5.06,5.06,0,0,1,210.48,61.22Z"/><path d="M185.49,109.54c-4.09-13.36-7.94-26.79-12.58-40-2.09-5.93-3.42-6.72-9.74-6.57-.84,0-1.69,0-2.52,0-5.61.42-7.62,2-9.44,7.39-1.11,3.28-2.34,6.53-3.46,9.81-3.34,9.74-6.56,19.52-9.31,29.44-.62,2.22-1.26,4.62.89,6.44,3.76,3.18,10.5,1.09,11.79-3.6.55-2,1.14-4,1.59-6.1.3-1.4.85-2.14,2.47-2.19,3-.1,6.07-.51,9.11-.7,5.62-.36,6-.42,7.16,4.92,1.62,7.35,6.54,7.48,12.26,5.08C185.53,112.74,186.14,111.66,185.49,109.54ZM166,93.34c-2.72.19-5.44.33-8.14.64-2,.22-2.36-.36-1.74-2.19,1.86-5.54,3.63-11.12,5.43-16.68l.7-.1c1.72,5.64,3.46,11.28,5.16,16.92C167.83,93.2,166.94,93.27,166,93.34Z"/><path d="M135.33,77.7a13.47,13.47,0,0,0-10.39-11.12c-8.92-2.33-17.71-1.34-26.24,2.07-2.12.84-2.87,2.53-2.86,4.77.06,6.74,0,13.47,0,20.21,0,5.79-.06,11.58,0,17.36.1,8.58,1.75,9.84,10.27,8.31,1.84-.33,2.73-.94,2.62-3-.18-3.68.1-7.38-.09-11-.12-2.35.44-3.57,3-3.4a24.5,24.5,0,0,0,4.09-.26c5.12-.56,9.86-2.09,13.83-5.52C135.29,91.12,136.6,84.73,135.33,77.7ZM119.76,89.34c-3.05,2.33-6.71,2.08-10.23,2.32-1.12.08-1-.86-1-1.56,0-2,0-4,0-6,0-.63-1.8-6.86,1.64-7.72,6-1.52,10.39-.14,12,3.33A8.08,8.08,0,0,1,119.76,89.34Z"/><path d="M41.52,85.29A13.67,13.67,0,0,0,31.22,73.7c-8.78-2.48-17.51-1.33-26,1.83C2.85,76.42,2,78.15,2,80.7,2.11,87.34,2,94,2,100.61v18.63c0,6.93,1.7,8.4,8.54,7.45.73-.1,1.44-.35,2.17-.4,1.61-.11,2.11-1,2.07-2.49-.08-3.58.19-7.18-.09-10.74-.25-3.07.58-4.2,3.84-4.2,6.45,0,12.57-1.53,17.49-6C41.23,98.07,42.63,92.06,41.52,85.29ZM25.86,96.44c-3,2.27-6.5,2.06-9.92,2.37-1.28.11-1.21-.83-1.21-1.69,0-2-1.92-12.82,1.73-13.63,5.79-1.3,10.24-.07,11.72,3.28A8.36,8.36,0,0,1,25.86,96.44Z"/><path d="M164.69,44c-3.27-10.08-6.32-20.23-9.57-30.31-1.43-4.42-2.7-5.15-7.9-5.17-2.55.49-6.53-.26-7.92,3.45a349.83,349.83,0,0,0-10.93,33.48c-.66,2.49.25,4.14,2.68,4.84,3,.87,6.72-.29,6.86-2.44.42-6.49,4.09-8.53,10-8.07a1.9,1.9,0,0,0,.63-.06c3.18-.74,5.18.25,5.57,3.73.59,5.3,4.13,5.7,8.67,4.32C164.55,47.25,165.41,46.24,164.69,44ZM149.54,32c-1.37.07-2.74.07-4.1.18-3.74.29-3.75.3-2.55-3.41q1.65-5.08,3.35-10.17c0-.15.22-.27.64-.76,1.33,4.36,2.57,8.43,3.83,12.5C151,31.4,150.62,31.92,149.54,32Z"/><path d="M32.45,26.36C31.2,21.8,27,18.7,21.28,18.13A39,39,0,0,0,6.34,19.65c-2.79.82-4.18,2.38-4.08,5.46.17,4.83.05,9.68.05,14.52,0,4.63,0,9.26,0,13.89,0,6,1.64,7.18,7.58,6,1.71-.34,2.56-.88,2.39-2.82-.19-2.3.11-4.64-.09-6.94-.24-2.71.47-3.82,3.49-3.84A19.4,19.4,0,0,0,27.77,42C32.3,38.47,34.12,32.47,32.45,26.36ZM18.15,37.68c-5.75,1.43-6,1.22-6-5.42,0-.31,0-.62,0-.94-.05-2.66-.67-5.39,3.71-5.32,4.1.07,6.63,1.32,7.08,4.56A6.53,6.53,0,0,1,18.15,37.68Z"/></svg>